<svg width="300" height="300" viewBox="-5 -5 34 34" xmlns="http://www.w3.org/2000/svg">
  <defs>
    <mask id="mask">
      <!-- Make the whole area opaque -->
      <rect width="100%" height="100%" fill="white"/>
      <!-- Make the area around the path transparent -->
      <path d="M1.8 16.6L10 9.4L14.8 14.2L22 4.6" fill="transparent" stroke="black" stroke-width="4" stroke-linejoin="round" stroke-linecap="round"/>
    </mask>
    <marker id="arrowhead" markerWidth="7" markerHeight="7" refX="0.7" refY="2" orient="auto">
      <path d="M1 2 L0.8 0.8L3 1.9L0.9 3.2L1 2" fill="black" stroke="black" stroke-width="0.5" stroke-linejoin="round" stroke-linecap="round" />
    </marker>
    <linearGradient id="redGradient" x1="0" y1="0" x2="1" y2="1">
      <stop offset="0%" style="stop-color:#ff4d4d;stop-opacity:1" />
      <stop offset="100%" style="stop-color:#990000;stop-opacity:1" />
    </linearGradient>
  </defs>
  <path d="M12 21.35l-1.45-1.32C5.4 15.36 2 12.28 2 8.5 2 5.42 4.42 3 7.5 3c1.74 0 3.41.81 4.5 2.09C13.09 3.81 14.76 3 16.5 3 19.58 3 22 5.42 22 8.5c0 3.78-3.4 6.86-8.55 11.54L12 21.35z" fill="url(#redGradient)" mask="url(#mask)"/>
  <path d="M1.8 16.6L10 9.4L14.8 14.2L22 4.6" fill="transparent" stroke="black" stroke-width="2" stroke-linejoin="round" stroke-linecap="round" marker-end="url(#arrowhead)"/>
  <text x="3" y="27" font-size="5" fill="black" font-family="Quicksand">elo</text>
  <text x="10" y="27" font-size="5" fill="#E63946" font-family="Quicksand">date</text>
</svg>
