<?xml version="1.0" encoding="UTF-8" standalone="no"?>
<!-- Created with Inkscape (http://www.inkscape.org/) -->

<svg
   width="14"
   height="14"
   viewBox="0 0 3.7041666 3.7041666"
   version="1.1"
   id="svg1"
   sodipodi:docname="platinum.svg"
   inkscape:version="1.3.2 (091e20e, 2023-11-25, custom)"
   xmlns:inkscape="http://www.inkscape.org/namespaces/inkscape"
   xmlns:sodipodi="http://sodipodi.sourceforge.net/DTD/sodipodi-0.dtd"
   xmlns="http://www.w3.org/2000/svg"
   xmlns:svg="http://www.w3.org/2000/svg">
  <sodipodi:namedview
     id="namedview1"
     pagecolor="#ffffff"
     bordercolor="#000000"
     borderopacity="0.25"
     inkscape:showpageshadow="2"
     inkscape:pageopacity="0.0"
     inkscape:pagecheckerboard="0"
     inkscape:deskcolor="#d1d1d1"
     inkscape:document-units="mm"
     showgrid="true"
     inkscape:zoom="10.533446"
     inkscape:cx="-21.075724"
     inkscape:cy="9.4461015"
     inkscape:window-width="1920"
     inkscape:window-height="974"
     inkscape:window-x="-11"
     inkscape:window-y="-11"
     inkscape:window-maximized="1"
     inkscape:current-layer="layer1">
    <inkscape:grid
       id="grid1"
       units="px"
       originx="-78.747315"
       originy="-106.19231"
       spacingx="0.26458333"
       spacingy="0.26458333"
       empcolor="#0099e5"
       empopacity="0.30196078"
       color="#0099e5"
       opacity="0.14901961"
       empspacing="5"
       dotted="false"
       gridanglex="30"
       gridanglez="30"
       visible="true" />
  </sodipodi:namedview>
  <defs
     id="defs1" />
  <g
     inkscape:label="Layer 1"
     inkscape:groupmode="layer"
     id="layer1"
     transform="translate(-78.747314,-106.19231)">
    <path
       id="path5"
       style="fill:#7f9eb0;fill-opacity:1;stroke:#7f9eb0;stroke-width:0.165;stroke-linecap:butt;stroke-linejoin:round;stroke-dasharray:none;stroke-opacity:1"
       d="m 80.750832,106.78307 a 0.61276619,0.27697521 31.002457 0 0 -0.140812,0.0289 0.68511926,1.1823396 31.002457 0 0 -0.833829,0.70313 0.68511926,1.1823396 31.002457 0 0 -0.244508,0.99104 0.66801775,0.28460323 31.002457 0 0 0.42825,0.58161 0.66801775,0.28460323 31.002457 0 0 0.717597,0.10224 0.50831432,1.1899676 31.002457 0 0 0.693971,-0.72532 0.50831432,1.1899676 31.002457 0 0 0.177478,-1.28136 0.50831432,1.1899676 31.002457 0 0 -0.05257,-0.0217 0.61276619,0.27697521 31.002457 0 0 -0.272961,-0.22135 0.61276619,0.27697521 31.002457 0 0 -0.472618,-0.15722 z m 0.18133,0.41522 a 0.28178272,0.87721986 31.002457 0 1 0.07138,0.013 0.28178272,0.87721986 31.002457 0 1 -0.210751,0.897 0.28178272,0.87721986 31.002457 0 1 -0.693005,0.60668 0.28178272,0.87721986 31.002457 0 1 0.210264,-0.897 0.28178272,0.87721986 31.002457 0 1 0.622112,-0.61971 z" />
  </g>
</svg>
