<?xml version="1.0" encoding="UTF-8" standalone="no"?>
<!-- Created with Inkscape (http://www.inkscape.org/) -->

<svg
   width="14"
   height="14"
   viewBox="0 0 3.7041666 3.7041666"
   version="1.1"
   id="svg1"
   sodipodi:docname="silver.svg"
   inkscape:version="1.3.2 (091e20e, 2023-11-25, custom)"
   xmlns:inkscape="http://www.inkscape.org/namespaces/inkscape"
   xmlns:sodipodi="http://sodipodi.sourceforge.net/DTD/sodipodi-0.dtd"
   xmlns="http://www.w3.org/2000/svg"
   xmlns:svg="http://www.w3.org/2000/svg">
  <sodipodi:namedview
     id="namedview1"
     pagecolor="#ffffff"
     bordercolor="#000000"
     borderopacity="0.25"
     inkscape:showpageshadow="2"
     inkscape:pageopacity="0.0"
     inkscape:pagecheckerboard="0"
     inkscape:deskcolor="#d1d1d1"
     inkscape:document-units="mm"
     showgrid="true"
     inkscape:zoom="10.533446"
     inkscape:cx="7.2151127"
     inkscape:cy="10.015716"
     inkscape:window-width="1920"
     inkscape:window-height="974"
     inkscape:window-x="-11"
     inkscape:window-y="-11"
     inkscape:window-maximized="1"
     inkscape:current-layer="layer1">
    <inkscape:grid
       id="grid1"
       units="px"
       originx="-71.287155"
       originy="-106.0416"
       spacingx="0.26458333"
       spacingy="0.26458333"
       empcolor="#0099e5"
       empopacity="0.30196078"
       color="#0099e5"
       opacity="0.14901961"
       empspacing="5"
       dotted="false"
       gridanglex="30"
       gridanglez="30"
       visible="true" />
  </sodipodi:namedview>
  <defs
     id="defs1" />
  <g
     inkscape:label="Layer 1"
     inkscape:groupmode="layer"
     id="layer1"
     transform="translate(-71.287155,-106.0416)">
    <path
       id="path2"
       style="fill:#c7c7c7;fill-opacity:1;stroke:#c7c7c7;stroke-width:0.165;stroke-linecap:butt;stroke-linejoin:round;stroke-dasharray:none;stroke-opacity:1"
       d="m 72.129177,106.927 a 1.0479223,1.1035442 0 0 0 0.507463,0.97513 1.0479223,1.1035442 0 0 0 0.256315,0.11524 v 0.51986 a 0.80814338,0.24865951 0 0 0 -0.532784,0.23358 0.80814338,0.24865951 0 0 0 0.807702,0.24857 0.80814338,0.24865951 0 0 0 0.80822,-0.24857 0.80814338,0.24865951 0 0 0 -0.532784,-0.23409 v -0.51367 a 1.0479223,1.1035442 0 0 0 0.249597,-0.10542 1.0479223,1.1035442 0 0 0 0.53175,-0.96066 h -1.047481 z" />
  </g>
</svg>
